{"title":"Real Time With Bill Maher Overtime 2012.01.27.XviD","uid":6992208,"size":73408512,"categoryP":"video","categoryS":"tv_shows","magnet":"?xt=urn:btih:5b4254562d39a5cd8f1129045d9b1f6941cab6a6&amp;dn=Real+Time+With+Bill+Maher+Overtime+2012.01.27.XviD&amp;tr=udp%3A%2F%2Ftracker.openbittorrent.com%3A80&amp;tr=udp%3A%2F%2Fopen.demonii.com%3A1337&amp;tr=udp%3A%2F%2Ftracker.coppersurfer.tk%3A6969&amp;tr=udp%3A%2F%2Fexodus.desync.com%3A6969","seeders":0,"leechers":0,"uploader":"camabron","files":1,"time":1327749151,"description":"Real Time With Bill Maher Overtime only January 27 2012\n\nGeneral\nComplete name                    : Real.Time.With.Bill.Maher.Overtime.2012.01.27.XviD.avi\nFormat                           : AVI\nFormat/Info                      : Audio Video Interleave\nFile size                        : 70.0 MiB\nDuration                         : 11mn 0s\nOverall bit rate                 : 890 Kbps\nWriting application              : VirtualDubMod 1.5.4.1 (build 2178/release)\nWriting library                  : VirtualDubMod build 2178/release\n\nVideo\nID                               : 0\nFormat                           : MPEG-4 Visual\nFormat profile                   : Advanced Simple@L5\nFormat settings, BVOP            : 1\nFormat settings, QPel            : No\nFormat settings, GMC             : No warppoints\nFormat settings, Matrix          : Custom\nCodec ID                         : XVID\nCodec ID/Hint                    : XviD\nDuration                         : 11mn 0s\nBit rate                         : 769 Kbps\nWidth                            : 624 pixels\nHeight                           : 352 pixels\nDisplay aspect ratio             : 16:9\nFrame rate                       : 29.970 fps\nColor space                      : YUV\nChroma subsampling               : 4:2:0\nBit depth                        : 8 bits\nScan type                        : Progressive\nCompression mode                 : Lossy\nBits/(Pixel*Frame)               : 0.117\nStream size                      : 60.5 MiB (86%)\nWriting library                  : XviD\n\nAudio\nID                               : 1\nFormat                           : MPEG Audio\nFormat version                   : Version 1\nFormat profile                   : Layer 3\nMode                             : Joint stereo\nMode extension                   : MS Stereo\nCodec ID                         : 55\nCodec ID/Hint                    : MP3\nDuration                         : 11mn 0s\nBit rate mode                    : Constant\nBit rate                         : 112 Kbps\nChannel(s)                       : 2 channels\nSampling rate                    : 44.1 KHz\nCompression mode                 : Lossy\nStream size                      : 8.81 MiB (13%)\nAlignment                        : Split accross interleaves\nInterleave, duration             : 67 ms (2.00 video frames)\nInterleave, preload duration     : 500 ms\nWriting library                  : LAME3.98r\nEncoding settings                : -m j -V 4 -q 2 -lowpass 15.6 -b 112","torrent":{"xt":"urn:btih:5b4254562d39a5cd8f1129045d9b1f6941cab6a6","amp;dn":"Real+Time+With+Bill+Maher+Overtime+2012.01.27.XviD","amp;tr":["udp%3A%2F%2Ftracker.openbittorrent.com%3A80","udp%3A%2F%2Fopen.demonii.com%3A1337","udp%3A%2F%2Ftracker.coppersurfer.tk%3A6969","udp%3A%2F%2Fexodus.desync.com%3A6969"],"infoHash":"5b4254562d39a5cd8f1129045d9b1f6941cab6a6","infoHashBuffer":{"type":"Buffer","data":[91,66,84,86,45,57,165,205,143,17,41,4,93,155,31,105,65,202,182,166]},"announce":[],"urlList":[]}}